<mxfile host="Electron" agent="Mozilla/5.0 (Windows NT 10.0; Win64; x64) AppleWebKit/537.36 (KHTML, like Gecko) draw.io/26.0.4 Chrome/128.0.6613.186 Electron/32.2.5 Safari/537.36" version="26.0.4">
  <diagram name="Page-1" id="to9laPEvmwYYF8XZ3khk">
    <mxGraphModel dx="1149" dy="568" grid="1" gridSize="10" guides="1" tooltips="1" connect="1" arrows="1" fold="1" page="1" pageScale="1" pageWidth="827" pageHeight="1169" math="0" shadow="0">
      <root>
        <mxCell id="0" />
        <mxCell id="1" parent="0" />
        <mxCell id="OT4-hi9Ndf2Y-_jL56fL-1" value="system de gestion du cours" style="swimlane;whiteSpace=wrap;html=1;startSize=23;" vertex="1" parent="1">
          <mxGeometry x="80" y="60" width="680" height="1090" as="geometry" />
        </mxCell>
        <mxCell id="OT4-hi9Ndf2Y-_jL56fL-13" value="consulter les categories de cours" style="ellipse;whiteSpace=wrap;html=1;" vertex="1" parent="OT4-hi9Ndf2Y-_jL56fL-1">
          <mxGeometry x="370" y="40" width="120" height="40" as="geometry" />
        </mxCell>
        <mxCell id="OT4-hi9Ndf2Y-_jL56fL-15" value="Rechercher les&amp;nbsp; cours" style="ellipse;whiteSpace=wrap;html=1;" vertex="1" parent="OT4-hi9Ndf2Y-_jL56fL-1">
          <mxGeometry x="370" y="110" width="120" height="40" as="geometry" />
        </mxCell>
        <mxCell id="OT4-hi9Ndf2Y-_jL56fL-17" value="Creer un compte" style="ellipse;whiteSpace=wrap;html=1;" vertex="1" parent="OT4-hi9Ndf2Y-_jL56fL-1">
          <mxGeometry x="380" y="170" width="120" height="40" as="geometry" />
        </mxCell>
        <mxCell id="OT4-hi9Ndf2Y-_jL56fL-21" value="&lt;b&gt;Inscrire a cour&lt;/b&gt;" style="ellipse;whiteSpace=wrap;html=1;" vertex="1" parent="OT4-hi9Ndf2Y-_jL56fL-1">
          <mxGeometry x="60" y="190" width="120" height="40" as="geometry" />
        </mxCell>
        <mxCell id="OT4-hi9Ndf2Y-_jL56fL-23" value="&lt;b&gt;Accede a ces cours&lt;/b&gt;" style="ellipse;whiteSpace=wrap;html=1;" vertex="1" parent="OT4-hi9Ndf2Y-_jL56fL-1">
          <mxGeometry x="60" y="250" width="120" height="40" as="geometry" />
        </mxCell>
        <mxCell id="OT4-hi9Ndf2Y-_jL56fL-26" value="&lt;b&gt;Consulter les details du cour&lt;/b&gt;" style="ellipse;whiteSpace=wrap;html=1;" vertex="1" parent="OT4-hi9Ndf2Y-_jL56fL-1">
          <mxGeometry x="65" y="300" width="120" height="40" as="geometry" />
        </mxCell>
        <mxCell id="OT4-hi9Ndf2Y-_jL56fL-28" value="&lt;b&gt;Ajouter un cours&lt;/b&gt;" style="ellipse;whiteSpace=wrap;html=1;" vertex="1" parent="OT4-hi9Ndf2Y-_jL56fL-1">
          <mxGeometry x="65" y="370" width="120" height="40" as="geometry" />
        </mxCell>
        <mxCell id="OT4-hi9Ndf2Y-_jL56fL-29" value="&lt;strong&gt;Modifier un cours&lt;/strong&gt;" style="ellipse;whiteSpace=wrap;html=1;" vertex="1" parent="OT4-hi9Ndf2Y-_jL56fL-1">
          <mxGeometry x="65" y="430" width="120" height="40" as="geometry" />
        </mxCell>
        <mxCell id="OT4-hi9Ndf2Y-_jL56fL-30" style="rounded=0;orthogonalLoop=1;jettySize=auto;html=1;" edge="1" target="OT4-hi9Ndf2Y-_jL56fL-29" parent="OT4-hi9Ndf2Y-_jL56fL-1">
          <mxGeometry relative="1" as="geometry">
            <mxPoint x="-30" y="530" as="sourcePoint" />
          </mxGeometry>
        </mxCell>
        <mxCell id="OT4-hi9Ndf2Y-_jL56fL-31" value="&lt;strong&gt;Supprimer un cours&lt;/strong&gt;" style="ellipse;whiteSpace=wrap;html=1;" vertex="1" parent="OT4-hi9Ndf2Y-_jL56fL-1">
          <mxGeometry x="70" y="490" width="120" height="40" as="geometry" />
        </mxCell>
        <mxCell id="OT4-hi9Ndf2Y-_jL56fL-33" value="&lt;strong&gt;Consulter les inscriptions&lt;/strong&gt;&amp;nbsp;" style="ellipse;whiteSpace=wrap;html=1;" vertex="1" parent="OT4-hi9Ndf2Y-_jL56fL-1">
          <mxGeometry x="65" y="550" width="120" height="40" as="geometry" />
        </mxCell>
        <mxCell id="OT4-hi9Ndf2Y-_jL56fL-35" value="&lt;font style=&quot;font-size: 24px;&quot;&gt;authentication&lt;/font&gt;" style="ellipse;whiteSpace=wrap;html=1;rotation=90;" vertex="1" parent="OT4-hi9Ndf2Y-_jL56fL-1">
          <mxGeometry x="427" y="430" width="320" height="80" as="geometry" />
        </mxCell>
        <mxCell id="OT4-hi9Ndf2Y-_jL56fL-37" value="" style="endArrow=none;dashed=1;html=1;dashPattern=1 3;strokeWidth=2;rounded=0;exitX=1;exitY=1;exitDx=0;exitDy=0;entryX=0;entryY=1;entryDx=0;entryDy=0;" edge="1" parent="OT4-hi9Ndf2Y-_jL56fL-1" source="OT4-hi9Ndf2Y-_jL56fL-21" target="OT4-hi9Ndf2Y-_jL56fL-35">
          <mxGeometry width="50" height="50" relative="1" as="geometry">
            <mxPoint x="680" y="460" as="sourcePoint" />
            <mxPoint x="730" y="410" as="targetPoint" />
          </mxGeometry>
        </mxCell>
        <mxCell id="OT4-hi9Ndf2Y-_jL56fL-38" value="&amp;lt;&amp;lt;Include&amp;gt;&amp;gt;" style="edgeLabel;html=1;align=center;verticalAlign=middle;resizable=0;points=[];" vertex="1" connectable="0" parent="OT4-hi9Ndf2Y-_jL56fL-37">
          <mxGeometry x="-0.0519" y="-2" relative="1" as="geometry">
            <mxPoint x="1" as="offset" />
          </mxGeometry>
        </mxCell>
        <mxCell id="OT4-hi9Ndf2Y-_jL56fL-39" value="" style="endArrow=none;dashed=1;html=1;dashPattern=1 3;strokeWidth=2;rounded=0;exitX=1;exitY=1;exitDx=0;exitDy=0;entryX=0.229;entryY=0.913;entryDx=0;entryDy=0;entryPerimeter=0;" edge="1" parent="OT4-hi9Ndf2Y-_jL56fL-1" source="OT4-hi9Ndf2Y-_jL56fL-23" target="OT4-hi9Ndf2Y-_jL56fL-35">
          <mxGeometry width="50" height="50" relative="1" as="geometry">
            <mxPoint x="182" y="294" as="sourcePoint" />
            <mxPoint x="569" y="367" as="targetPoint" />
          </mxGeometry>
        </mxCell>
        <mxCell id="OT4-hi9Ndf2Y-_jL56fL-40" value="&amp;lt;&amp;lt;Include&amp;gt;&amp;gt;" style="edgeLabel;html=1;align=center;verticalAlign=middle;resizable=0;points=[];" vertex="1" connectable="0" parent="OT4-hi9Ndf2Y-_jL56fL-39">
          <mxGeometry x="-0.0519" y="-2" relative="1" as="geometry">
            <mxPoint x="1" as="offset" />
          </mxGeometry>
        </mxCell>
        <mxCell id="OT4-hi9Ndf2Y-_jL56fL-41" value="" style="endArrow=none;dashed=1;html=1;dashPattern=1 3;strokeWidth=2;rounded=0;exitX=1;exitY=1;exitDx=0;exitDy=0;" edge="1" parent="OT4-hi9Ndf2Y-_jL56fL-1" source="OT4-hi9Ndf2Y-_jL56fL-26">
          <mxGeometry width="50" height="50" relative="1" as="geometry">
            <mxPoint x="182" y="344" as="sourcePoint" />
            <mxPoint x="540" y="390" as="targetPoint" />
          </mxGeometry>
        </mxCell>
        <mxCell id="OT4-hi9Ndf2Y-_jL56fL-42" value="&amp;lt;&amp;lt;Include&amp;gt;&amp;gt;" style="edgeLabel;html=1;align=center;verticalAlign=middle;resizable=0;points=[];" vertex="1" connectable="0" parent="OT4-hi9Ndf2Y-_jL56fL-41">
          <mxGeometry x="-0.0519" y="-2" relative="1" as="geometry">
            <mxPoint x="1" as="offset" />
          </mxGeometry>
        </mxCell>
        <mxCell id="OT4-hi9Ndf2Y-_jL56fL-43" value="" style="endArrow=none;dashed=1;html=1;dashPattern=1 3;strokeWidth=2;rounded=0;" edge="1" parent="OT4-hi9Ndf2Y-_jL56fL-1" source="OT4-hi9Ndf2Y-_jL56fL-28">
          <mxGeometry width="50" height="50" relative="1" as="geometry">
            <mxPoint x="192" y="394" as="sourcePoint" />
            <mxPoint x="540" y="410" as="targetPoint" />
          </mxGeometry>
        </mxCell>
        <mxCell id="OT4-hi9Ndf2Y-_jL56fL-44" value="&amp;lt;&amp;lt;Include&amp;gt;&amp;gt;" style="edgeLabel;html=1;align=center;verticalAlign=middle;resizable=0;points=[];" vertex="1" connectable="0" parent="OT4-hi9Ndf2Y-_jL56fL-43">
          <mxGeometry x="-0.0519" y="-2" relative="1" as="geometry">
            <mxPoint x="1" as="offset" />
          </mxGeometry>
        </mxCell>
        <mxCell id="OT4-hi9Ndf2Y-_jL56fL-45" value="" style="endArrow=none;dashed=1;html=1;dashPattern=1 3;strokeWidth=2;rounded=0;exitX=1;exitY=1;exitDx=0;exitDy=0;" edge="1" parent="OT4-hi9Ndf2Y-_jL56fL-1" source="OT4-hi9Ndf2Y-_jL56fL-29">
          <mxGeometry width="50" height="50" relative="1" as="geometry">
            <mxPoint x="225" y="452" as="sourcePoint" />
            <mxPoint x="540" y="430" as="targetPoint" />
          </mxGeometry>
        </mxCell>
        <mxCell id="OT4-hi9Ndf2Y-_jL56fL-46" value="&amp;lt;&amp;lt;Include&amp;gt;&amp;gt;" style="edgeLabel;html=1;align=center;verticalAlign=middle;resizable=0;points=[];" vertex="1" connectable="0" parent="OT4-hi9Ndf2Y-_jL56fL-45">
          <mxGeometry x="-0.0519" y="-2" relative="1" as="geometry">
            <mxPoint x="1" as="offset" />
          </mxGeometry>
        </mxCell>
        <mxCell id="OT4-hi9Ndf2Y-_jL56fL-47" value="" style="endArrow=none;dashed=1;html=1;dashPattern=1 3;strokeWidth=2;rounded=0;entryX=0.444;entryY=1.004;entryDx=0;entryDy=0;exitX=1;exitY=1;exitDx=0;exitDy=0;entryPerimeter=0;" edge="1" parent="OT4-hi9Ndf2Y-_jL56fL-1" source="OT4-hi9Ndf2Y-_jL56fL-31" target="OT4-hi9Ndf2Y-_jL56fL-35">
          <mxGeometry width="50" height="50" relative="1" as="geometry">
            <mxPoint x="212" y="529" as="sourcePoint" />
            <mxPoint x="609" y="407" as="targetPoint" />
          </mxGeometry>
        </mxCell>
        <mxCell id="OT4-hi9Ndf2Y-_jL56fL-48" value="&amp;lt;&amp;lt;Include&amp;gt;&amp;gt;" style="edgeLabel;html=1;align=center;verticalAlign=middle;resizable=0;points=[];" vertex="1" connectable="0" parent="OT4-hi9Ndf2Y-_jL56fL-47">
          <mxGeometry x="-0.0519" y="-2" relative="1" as="geometry">
            <mxPoint x="1" as="offset" />
          </mxGeometry>
        </mxCell>
        <mxCell id="OT4-hi9Ndf2Y-_jL56fL-49" value="" style="endArrow=none;dashed=1;html=1;dashPattern=1 3;strokeWidth=2;rounded=0;entryX=0.539;entryY=0.959;entryDx=0;entryDy=0;exitX=1;exitY=0.5;exitDx=0;exitDy=0;entryPerimeter=0;" edge="1" parent="OT4-hi9Ndf2Y-_jL56fL-1" source="OT4-hi9Ndf2Y-_jL56fL-33" target="OT4-hi9Ndf2Y-_jL56fL-35">
          <mxGeometry width="50" height="50" relative="1" as="geometry">
            <mxPoint x="212" y="584" as="sourcePoint" />
            <mxPoint x="619" y="417" as="targetPoint" />
          </mxGeometry>
        </mxCell>
        <mxCell id="OT4-hi9Ndf2Y-_jL56fL-50" value="&amp;lt;&amp;lt;Include&amp;gt;&amp;gt;" style="edgeLabel;html=1;align=center;verticalAlign=middle;resizable=0;points=[];" vertex="1" connectable="0" parent="OT4-hi9Ndf2Y-_jL56fL-49">
          <mxGeometry x="-0.0519" y="-2" relative="1" as="geometry">
            <mxPoint x="1" as="offset" />
          </mxGeometry>
        </mxCell>
        <mxCell id="OT4-hi9Ndf2Y-_jL56fL-51" value="&lt;strong&gt;Gérer les utilisateurs&lt;/strong&gt;" style="ellipse;whiteSpace=wrap;html=1;" vertex="1" parent="OT4-hi9Ndf2Y-_jL56fL-1">
          <mxGeometry x="78" y="850" width="120" height="40" as="geometry" />
        </mxCell>
        <mxCell id="OT4-hi9Ndf2Y-_jL56fL-52" value="&lt;strong&gt;Valider un compte enseignant&lt;/strong&gt;" style="ellipse;whiteSpace=wrap;html=1;" vertex="1" parent="OT4-hi9Ndf2Y-_jL56fL-1">
          <mxGeometry x="78" y="670" width="120" height="40" as="geometry" />
        </mxCell>
        <mxCell id="OT4-hi9Ndf2Y-_jL56fL-53" style="rounded=0;orthogonalLoop=1;jettySize=auto;html=1;exitX=0.5;exitY=0.5;exitDx=0;exitDy=0;exitPerimeter=0;entryX=-0.008;entryY=0.69;entryDx=0;entryDy=0;entryPerimeter=0;" edge="1" target="OT4-hi9Ndf2Y-_jL56fL-52" parent="OT4-hi9Ndf2Y-_jL56fL-1">
          <mxGeometry relative="1" as="geometry">
            <mxPoint x="-32" y="820" as="sourcePoint" />
          </mxGeometry>
        </mxCell>
        <mxCell id="OT4-hi9Ndf2Y-_jL56fL-54" style="rounded=0;orthogonalLoop=1;jettySize=auto;html=1;entryX=0;entryY=0.5;entryDx=0;entryDy=0;" edge="1" target="OT4-hi9Ndf2Y-_jL56fL-51" parent="OT4-hi9Ndf2Y-_jL56fL-1">
          <mxGeometry relative="1" as="geometry">
            <mxPoint x="-20" y="820" as="sourcePoint" />
          </mxGeometry>
        </mxCell>
        <mxCell id="OT4-hi9Ndf2Y-_jL56fL-55" style="rounded=0;orthogonalLoop=1;jettySize=auto;html=1;entryX=0;entryY=0.5;entryDx=0;entryDy=0;" edge="1" parent="OT4-hi9Ndf2Y-_jL56fL-1" target="OT4-hi9Ndf2Y-_jL56fL-66">
          <mxGeometry relative="1" as="geometry">
            <mxPoint x="-30" y="830" as="sourcePoint" />
            <mxPoint x="111" y="827" as="targetPoint" />
          </mxGeometry>
        </mxCell>
        <mxCell id="OT4-hi9Ndf2Y-_jL56fL-57" value="&lt;strong&gt;Gérer les catégories&amp;nbsp;&lt;/strong&gt;" style="ellipse;whiteSpace=wrap;html=1;" vertex="1" parent="OT4-hi9Ndf2Y-_jL56fL-1">
          <mxGeometry x="70" y="980" width="120" height="40" as="geometry" />
        </mxCell>
        <mxCell id="OT4-hi9Ndf2Y-_jL56fL-58" value="" style="endArrow=none;dashed=1;html=1;dashPattern=1 3;strokeWidth=2;rounded=0;entryX=0.968;entryY=0.704;entryDx=0;entryDy=0;exitX=1;exitY=0.5;exitDx=0;exitDy=0;entryPerimeter=0;" edge="1" parent="OT4-hi9Ndf2Y-_jL56fL-1" source="OT4-hi9Ndf2Y-_jL56fL-66" target="OT4-hi9Ndf2Y-_jL56fL-35">
          <mxGeometry width="50" height="50" relative="1" as="geometry">
            <mxPoint x="212" y="844" as="sourcePoint" />
            <mxPoint x="557" y="722" as="targetPoint" />
          </mxGeometry>
        </mxCell>
        <mxCell id="OT4-hi9Ndf2Y-_jL56fL-59" value="&amp;lt;&amp;lt;Include&amp;gt;&amp;gt;" style="edgeLabel;html=1;align=center;verticalAlign=middle;resizable=0;points=[];" vertex="1" connectable="0" parent="OT4-hi9Ndf2Y-_jL56fL-58">
          <mxGeometry x="-0.0519" y="-2" relative="1" as="geometry">
            <mxPoint x="1" as="offset" />
          </mxGeometry>
        </mxCell>
        <mxCell id="OT4-hi9Ndf2Y-_jL56fL-60" value="" style="endArrow=none;dashed=1;html=1;dashPattern=1 3;strokeWidth=2;rounded=0;entryX=0.995;entryY=0.606;entryDx=0;entryDy=0;exitX=1;exitY=0.5;exitDx=0;exitDy=0;entryPerimeter=0;" edge="1" source="OT4-hi9Ndf2Y-_jL56fL-57" parent="OT4-hi9Ndf2Y-_jL56fL-1" target="OT4-hi9Ndf2Y-_jL56fL-35">
          <mxGeometry width="50" height="50" relative="1" as="geometry">
            <mxPoint x="222" y="854" as="sourcePoint" />
            <mxPoint x="560" y="752" as="targetPoint" />
          </mxGeometry>
        </mxCell>
        <mxCell id="OT4-hi9Ndf2Y-_jL56fL-61" value="&amp;lt;&amp;lt;Include&amp;gt;&amp;gt;" style="edgeLabel;html=1;align=center;verticalAlign=middle;resizable=0;points=[];" vertex="1" connectable="0" parent="OT4-hi9Ndf2Y-_jL56fL-60">
          <mxGeometry x="-0.0519" y="-2" relative="1" as="geometry">
            <mxPoint x="1" as="offset" />
          </mxGeometry>
        </mxCell>
        <mxCell id="OT4-hi9Ndf2Y-_jL56fL-62" value="" style="endArrow=none;dashed=1;html=1;dashPattern=1 3;strokeWidth=2;rounded=0;exitX=1;exitY=1;exitDx=0;exitDy=0;entryX=0.944;entryY=0.734;entryDx=0;entryDy=0;entryPerimeter=0;" edge="1" source="OT4-hi9Ndf2Y-_jL56fL-51" parent="OT4-hi9Ndf2Y-_jL56fL-1" target="OT4-hi9Ndf2Y-_jL56fL-35">
          <mxGeometry width="50" height="50" relative="1" as="geometry">
            <mxPoint x="235" y="722" as="sourcePoint" />
            <mxPoint x="550" y="700" as="targetPoint" />
          </mxGeometry>
        </mxCell>
        <mxCell id="OT4-hi9Ndf2Y-_jL56fL-63" value="&amp;lt;&amp;lt;Include&amp;gt;&amp;gt;" style="edgeLabel;html=1;align=center;verticalAlign=middle;resizable=0;points=[];" vertex="1" connectable="0" parent="OT4-hi9Ndf2Y-_jL56fL-62">
          <mxGeometry x="-0.0519" y="-2" relative="1" as="geometry">
            <mxPoint x="1" as="offset" />
          </mxGeometry>
        </mxCell>
        <mxCell id="OT4-hi9Ndf2Y-_jL56fL-64" value="" style="endArrow=none;dashed=1;html=1;dashPattern=1 3;strokeWidth=2;rounded=0;entryX=1;entryY=1;entryDx=0;entryDy=0;" edge="1" source="OT4-hi9Ndf2Y-_jL56fL-52" parent="OT4-hi9Ndf2Y-_jL56fL-1" target="OT4-hi9Ndf2Y-_jL56fL-35">
          <mxGeometry width="50" height="50" relative="1" as="geometry">
            <mxPoint x="202" y="664" as="sourcePoint" />
            <mxPoint x="550" y="680" as="targetPoint" />
          </mxGeometry>
        </mxCell>
        <mxCell id="OT4-hi9Ndf2Y-_jL56fL-65" value="&amp;lt;&amp;lt;Include&amp;gt;&amp;gt;" style="edgeLabel;html=1;align=center;verticalAlign=middle;resizable=0;points=[];" vertex="1" connectable="0" parent="OT4-hi9Ndf2Y-_jL56fL-64">
          <mxGeometry x="-0.0519" y="-2" relative="1" as="geometry">
            <mxPoint x="1" as="offset" />
          </mxGeometry>
        </mxCell>
        <mxCell id="OT4-hi9Ndf2Y-_jL56fL-66" value="&lt;b&gt;Gérer les cours&lt;/b&gt;" style="ellipse;whiteSpace=wrap;html=1;" vertex="1" parent="OT4-hi9Ndf2Y-_jL56fL-1">
          <mxGeometry x="79" y="920" width="120" height="40" as="geometry" />
        </mxCell>
        <mxCell id="OT4-hi9Ndf2Y-_jL56fL-68" value="&lt;b&gt;Accéder à mes statistiques&lt;/b&gt;" style="ellipse;whiteSpace=wrap;html=1;" vertex="1" parent="OT4-hi9Ndf2Y-_jL56fL-1">
          <mxGeometry x="70" y="610" width="120" height="40" as="geometry" />
        </mxCell>
        <mxCell id="OT4-hi9Ndf2Y-_jL56fL-69" value="" style="endArrow=none;dashed=1;html=1;dashPattern=1 3;strokeWidth=2;rounded=0;entryX=0.539;entryY=0.959;entryDx=0;entryDy=0;exitX=1;exitY=0.5;exitDx=0;exitDy=0;entryPerimeter=0;" edge="1" source="OT4-hi9Ndf2Y-_jL56fL-68" parent="OT4-hi9Ndf2Y-_jL56fL-1">
          <mxGeometry width="50" height="50" relative="1" as="geometry">
            <mxPoint x="209" y="632" as="sourcePoint" />
            <mxPoint x="547" y="530" as="targetPoint" />
          </mxGeometry>
        </mxCell>
        <mxCell id="OT4-hi9Ndf2Y-_jL56fL-70" value="&amp;lt;&amp;lt;Include&amp;gt;&amp;gt;" style="edgeLabel;html=1;align=center;verticalAlign=middle;resizable=0;points=[];" vertex="1" connectable="0" parent="OT4-hi9Ndf2Y-_jL56fL-69">
          <mxGeometry x="-0.0519" y="-2" relative="1" as="geometry">
            <mxPoint x="1" as="offset" />
          </mxGeometry>
        </mxCell>
        <mxCell id="OT4-hi9Ndf2Y-_jL56fL-71" value="&lt;strong&gt;Consulter les statistiques globales&lt;/strong&gt;" style="ellipse;whiteSpace=wrap;html=1;" vertex="1" parent="OT4-hi9Ndf2Y-_jL56fL-1">
          <mxGeometry x="80" y="760" width="120" height="40" as="geometry" />
        </mxCell>
        <mxCell id="OT4-hi9Ndf2Y-_jL56fL-72" value="" style="endArrow=none;dashed=1;html=1;dashPattern=1 3;strokeWidth=2;rounded=0;entryX=0.908;entryY=0.825;entryDx=0;entryDy=0;exitX=0.969;exitY=0.629;exitDx=0;exitDy=0;exitPerimeter=0;entryPerimeter=0;" edge="1" parent="OT4-hi9Ndf2Y-_jL56fL-1" source="OT4-hi9Ndf2Y-_jL56fL-71" target="OT4-hi9Ndf2Y-_jL56fL-35">
          <mxGeometry width="50" height="50" relative="1" as="geometry">
            <mxPoint x="240" y="900" as="sourcePoint" />
            <mxPoint x="570" y="762" as="targetPoint" />
          </mxGeometry>
        </mxCell>
        <mxCell id="OT4-hi9Ndf2Y-_jL56fL-73" value="&amp;lt;&amp;lt;Include&amp;gt;&amp;gt;" style="edgeLabel;html=1;align=center;verticalAlign=middle;resizable=0;points=[];" vertex="1" connectable="0" parent="OT4-hi9Ndf2Y-_jL56fL-72">
          <mxGeometry x="-0.0519" y="-2" relative="1" as="geometry">
            <mxPoint x="1" as="offset" />
          </mxGeometry>
        </mxCell>
        <mxCell id="OT4-hi9Ndf2Y-_jL56fL-78" value="&lt;strong&gt;Gérer les tags&lt;/strong&gt;" style="ellipse;whiteSpace=wrap;html=1;" vertex="1" parent="OT4-hi9Ndf2Y-_jL56fL-1">
          <mxGeometry x="73" y="1031" width="120" height="40" as="geometry" />
        </mxCell>
        <mxCell id="OT4-hi9Ndf2Y-_jL56fL-79" value="" style="endArrow=none;dashed=1;html=1;dashPattern=1 3;strokeWidth=2;rounded=0;entryX=1.004;entryY=0.353;entryDx=0;entryDy=0;exitX=1;exitY=0.5;exitDx=0;exitDy=0;entryPerimeter=0;" edge="1" source="OT4-hi9Ndf2Y-_jL56fL-78" parent="OT4-hi9Ndf2Y-_jL56fL-1" target="OT4-hi9Ndf2Y-_jL56fL-35">
          <mxGeometry width="50" height="50" relative="1" as="geometry">
            <mxPoint x="232" y="924" as="sourcePoint" />
            <mxPoint x="589" y="698" as="targetPoint" />
          </mxGeometry>
        </mxCell>
        <mxCell id="OT4-hi9Ndf2Y-_jL56fL-80" value="&amp;lt;&amp;lt;Include&amp;gt;&amp;gt;" style="edgeLabel;html=1;align=center;verticalAlign=middle;resizable=0;points=[];" vertex="1" connectable="0" parent="OT4-hi9Ndf2Y-_jL56fL-79">
          <mxGeometry x="-0.0519" y="-2" relative="1" as="geometry">
            <mxPoint x="1" as="offset" />
          </mxGeometry>
        </mxCell>
        <mxCell id="OT4-hi9Ndf2Y-_jL56fL-12" style="edgeStyle=orthogonalEdgeStyle;rounded=0;orthogonalLoop=1;jettySize=auto;html=1;" edge="1" parent="1" source="OT4-hi9Ndf2Y-_jL56fL-2" target="OT4-hi9Ndf2Y-_jL56fL-3">
          <mxGeometry relative="1" as="geometry" />
        </mxCell>
        <mxCell id="OT4-hi9Ndf2Y-_jL56fL-2" value="&lt;b&gt;Etudiant&lt;/b&gt;" style="shape=umlActor;verticalLabelPosition=bottom;verticalAlign=top;html=1;outlineConnect=0;" vertex="1" parent="1">
          <mxGeometry x="24" y="360" width="30" height="60" as="geometry" />
        </mxCell>
        <mxCell id="OT4-hi9Ndf2Y-_jL56fL-14" style="rounded=0;orthogonalLoop=1;jettySize=auto;html=1;exitX=1;exitY=0.3333333333333333;exitDx=0;exitDy=0;exitPerimeter=0;" edge="1" parent="1" source="OT4-hi9Ndf2Y-_jL56fL-3" target="OT4-hi9Ndf2Y-_jL56fL-13">
          <mxGeometry relative="1" as="geometry" />
        </mxCell>
        <mxCell id="OT4-hi9Ndf2Y-_jL56fL-3" value="&lt;b&gt;Visiteur&lt;/b&gt;" style="shape=umlActor;verticalLabelPosition=bottom;verticalAlign=top;html=1;outlineConnect=0;" vertex="1" parent="1">
          <mxGeometry x="23" y="150" width="30" height="60" as="geometry" />
        </mxCell>
        <mxCell id="OT4-hi9Ndf2Y-_jL56fL-4" value="&lt;span style=&quot;box-sizing: border-box; border: 0px solid; --tw-border-spacing-x: 0; --tw-border-spacing-y: 0; --tw-translate-x: 0; --tw-translate-y: 0; --tw-rotate: 0; --tw-skew-x: 0; --tw-skew-y: 0; --tw-scale-x: 1; --tw-scale-y: 1; --tw-pan-x: ; --tw-pan-y: ; --tw-pinch-zoom: ; --tw-scroll-snap-strictness: proximity; --tw-gradient-from-position: ; --tw-gradient-via-position: ; --tw-gradient-to-position: ; --tw-ordinal: ; --tw-slashed-zero: ; --tw-numeric-figure: ; --tw-numeric-spacing: ; --tw-numeric-fraction: ; --tw-ring-inset: ; --tw-ring-offset-width: 0px; --tw-ring-offset-color: #fff; --tw-ring-color: rgba(59,130,246,.5); --tw-ring-offset-shadow: 0 0 #0000; --tw-ring-shadow: 0 0 #0000; --tw-shadow: 0 0 #0000; --tw-shadow-colored: 0 0 #0000; --tw-blur: ; --tw-brightness: ; --tw-contrast: ; --tw-grayscale: ; --tw-hue-rotate: ; --tw-invert: ; --tw-saturate: ; --tw-sepia: ; --tw-drop-shadow: ; --tw-backdrop-blur: ; --tw-backdrop-brightness: ; --tw-backdrop-contrast: ; --tw-backdrop-grayscale: ; --tw-backdrop-hue-rotate: ; --tw-backdrop-invert: ; --tw-backdrop-opacity: ; --tw-backdrop-saturate: ; --tw-backdrop-sepia: ; --tw-contain-size: ; --tw-contain-layout: ; --tw-contain-paint: ; --tw-contain-style: ; font-weight: bolder; font-family: &amp;quot;Nunito Sans&amp;quot;, sans-serif; font-size: 14px; text-align: start; white-space: pre-wrap; background-color: rgb(255, 255, 255);&quot;&gt;Enseignant&lt;/span&gt;" style="shape=umlActor;verticalLabelPosition=bottom;verticalAlign=top;html=1;outlineConnect=0;" vertex="1" parent="1">
          <mxGeometry x="23" y="560" width="30" height="60" as="geometry" />
        </mxCell>
        <mxCell id="OT4-hi9Ndf2Y-_jL56fL-5" value="&lt;b&gt;Admin&lt;/b&gt;" style="shape=umlActor;verticalLabelPosition=bottom;verticalAlign=top;html=1;outlineConnect=0;" vertex="1" parent="1">
          <mxGeometry x="30" y="840" width="30" height="60" as="geometry" />
        </mxCell>
        <mxCell id="OT4-hi9Ndf2Y-_jL56fL-16" style="rounded=0;orthogonalLoop=1;jettySize=auto;html=1;exitX=0.5;exitY=0.5;exitDx=0;exitDy=0;exitPerimeter=0;" edge="1" target="OT4-hi9Ndf2Y-_jL56fL-15" parent="1" source="OT4-hi9Ndf2Y-_jL56fL-3">
          <mxGeometry relative="1" as="geometry">
            <mxPoint x="50" y="240" as="sourcePoint" />
          </mxGeometry>
        </mxCell>
        <mxCell id="OT4-hi9Ndf2Y-_jL56fL-18" style="rounded=0;orthogonalLoop=1;jettySize=auto;html=1;" edge="1" target="OT4-hi9Ndf2Y-_jL56fL-17" parent="1" source="OT4-hi9Ndf2Y-_jL56fL-3">
          <mxGeometry relative="1" as="geometry">
            <mxPoint x="60" y="250" as="sourcePoint" />
          </mxGeometry>
        </mxCell>
        <mxCell id="OT4-hi9Ndf2Y-_jL56fL-22" style="rounded=0;orthogonalLoop=1;jettySize=auto;html=1;exitX=0.75;exitY=0.1;exitDx=0;exitDy=0;exitPerimeter=0;" edge="1" target="OT4-hi9Ndf2Y-_jL56fL-21" parent="1" source="OT4-hi9Ndf2Y-_jL56fL-2">
          <mxGeometry relative="1" as="geometry">
            <mxPoint x="80" y="270" as="sourcePoint" />
          </mxGeometry>
        </mxCell>
        <mxCell id="OT4-hi9Ndf2Y-_jL56fL-24" style="rounded=0;orthogonalLoop=1;jettySize=auto;html=1;exitX=1;exitY=0.3333333333333333;exitDx=0;exitDy=0;exitPerimeter=0;" edge="1" target="OT4-hi9Ndf2Y-_jL56fL-23" parent="1" source="OT4-hi9Ndf2Y-_jL56fL-2">
          <mxGeometry relative="1" as="geometry">
            <mxPoint x="85" y="400" as="sourcePoint" />
          </mxGeometry>
        </mxCell>
        <mxCell id="OT4-hi9Ndf2Y-_jL56fL-25" style="rounded=0;orthogonalLoop=1;jettySize=auto;html=1;exitX=0.5;exitY=0.5;exitDx=0;exitDy=0;exitPerimeter=0;" edge="1" target="OT4-hi9Ndf2Y-_jL56fL-26" parent="1" source="OT4-hi9Ndf2Y-_jL56fL-2">
          <mxGeometry relative="1" as="geometry">
            <mxPoint x="64" y="430" as="sourcePoint" />
          </mxGeometry>
        </mxCell>
        <mxCell id="OT4-hi9Ndf2Y-_jL56fL-27" style="rounded=0;orthogonalLoop=1;jettySize=auto;html=1;exitX=0.5;exitY=0.5;exitDx=0;exitDy=0;exitPerimeter=0;" edge="1" target="OT4-hi9Ndf2Y-_jL56fL-28" parent="1" source="OT4-hi9Ndf2Y-_jL56fL-4">
          <mxGeometry relative="1" as="geometry">
            <mxPoint x="39" y="450" as="sourcePoint" />
          </mxGeometry>
        </mxCell>
        <mxCell id="OT4-hi9Ndf2Y-_jL56fL-32" style="rounded=0;orthogonalLoop=1;jettySize=auto;html=1;" edge="1" target="OT4-hi9Ndf2Y-_jL56fL-31" parent="1" source="OT4-hi9Ndf2Y-_jL56fL-4">
          <mxGeometry relative="1" as="geometry">
            <mxPoint x="38" y="700" as="sourcePoint" />
          </mxGeometry>
        </mxCell>
        <mxCell id="OT4-hi9Ndf2Y-_jL56fL-34" style="rounded=0;orthogonalLoop=1;jettySize=auto;html=1;" edge="1" target="OT4-hi9Ndf2Y-_jL56fL-33" parent="1" source="OT4-hi9Ndf2Y-_jL56fL-4">
          <mxGeometry relative="1" as="geometry">
            <mxPoint x="38" y="760" as="sourcePoint" />
          </mxGeometry>
        </mxCell>
        <mxCell id="OT4-hi9Ndf2Y-_jL56fL-67" style="rounded=0;orthogonalLoop=1;jettySize=auto;html=1;" edge="1" target="OT4-hi9Ndf2Y-_jL56fL-68" parent="1" source="OT4-hi9Ndf2Y-_jL56fL-4">
          <mxGeometry relative="1" as="geometry">
            <mxPoint x="50" y="643" as="sourcePoint" />
          </mxGeometry>
        </mxCell>
        <mxCell id="OT4-hi9Ndf2Y-_jL56fL-74" style="rounded=0;orthogonalLoop=1;jettySize=auto;html=1;" edge="1" parent="1" source="OT4-hi9Ndf2Y-_jL56fL-5" target="OT4-hi9Ndf2Y-_jL56fL-71">
          <mxGeometry relative="1" as="geometry">
            <mxPoint x="73" y="875" as="sourcePoint" />
            <mxPoint x="218" y="926" as="targetPoint" />
          </mxGeometry>
        </mxCell>
        <mxCell id="OT4-hi9Ndf2Y-_jL56fL-56" style="rounded=0;orthogonalLoop=1;jettySize=auto;html=1;exitX=0.5;exitY=0.5;exitDx=0;exitDy=0;exitPerimeter=0;entryX=0.021;entryY=0.279;entryDx=0;entryDy=0;entryPerimeter=0;" edge="1" target="OT4-hi9Ndf2Y-_jL56fL-57" parent="1" source="OT4-hi9Ndf2Y-_jL56fL-5">
          <mxGeometry relative="1" as="geometry">
            <mxPoint x="63" y="865" as="sourcePoint" />
          </mxGeometry>
        </mxCell>
        <mxCell id="OT4-hi9Ndf2Y-_jL56fL-81" style="rounded=0;orthogonalLoop=1;jettySize=auto;html=1;entryX=0.021;entryY=0.279;entryDx=0;entryDy=0;entryPerimeter=0;" edge="1" target="OT4-hi9Ndf2Y-_jL56fL-78" parent="1" source="OT4-hi9Ndf2Y-_jL56fL-5">
          <mxGeometry relative="1" as="geometry">
            <mxPoint x="55" y="940" as="sourcePoint" />
          </mxGeometry>
        </mxCell>
      </root>
    </mxGraphModel>
  </diagram>
</mxfile>
